HIERARCHY
ROOT Hips
{
  OFFSET 228.851 101.489 -231.624
  CHANNELS 6 Xposition Yposition Zposition Zrotation Xrotation Yrotation
  JOINT ToSpine
  {
    OFFSET -0.0105055 1.38907 -7.13956
    CHANNELS 3 Zrotation Xrotation Yrotation
    JOINT Spine
    {
      OFFSET 0.0105055 10 1
      CHANNELS 3 Zrotation Xrotation Yrotation
      JOINT Spine1
      {
        OFFSET 0 12 1.60637
        CHANNELS 3 Zrotation Xrotation Yrotation
        JOINT Neck
        {
          OFFSET 0 27 2.26658
          CHANNELS 3 Zrotation Xrotation Yrotation
          JOINT Head
          {
            OFFSET 0 9 2.12705
            CHANNELS 3 Zrotation Xrotation Yrotation
            End Site
            {
              OFFSET 0 11 2
            }
          }
        }
        JOINT LeftShoulder
        {
          OFFSET 8 19.6109 2.86452
          CHANNELS 3 Zrotation Xrotation Yrotation
          JOINT LeftArm
          {
            OFFSET 12 1 0.681055
            CHANNELS 3 Zrotation Xrotation Yrotation
            JOINT LeftForeArm
            {
              OFFSET 19 0 -1.52608
              CHANNELS 3 Zrotation Xrotation Yrotation
              JOINT LeftHand
              {
                OFFSET 23 0 0
                CHANNELS 3 Zrotation Xrotation Yrotation
                End Site
                {
                  OFFSET 10 0 0
                }
              }
            }
          }
        }
        JOINT RightShoulder
        {
          OFFSET -8 19.6109 2.86452
          CHANNELS 3 Zrotation Xrotation Yrotation
          JOINT RightArm
          {
            OFFSET -12 1 0.681055
            CHANNELS 3 Zrotation Xrotation Yrotation
            JOINT RightForeArm
            {
              OFFSET -19 0 -1.52608
              CHANNELS 3 Zrotation Xrotation Yrotation
              JOINT RightHand
              {
                OFFSET -23 0 0
                CHANNELS 3 Zrotation Xrotation Yrotation
                End Site
                {
                  OFFSET -10 0 0
                }
              }
            }
          }
        }
      }
    }
  }
  JOINT LeftUpLeg
  {
    OFFSET 9 -7.17245 0
    CHANNELS 3 Zrotation Xrotation Yrotation
    JOINT LeftLeg
    {
      OFFSET 0 -44.1113 0
      CHANNELS 3 Zrotation Xrotation Yrotation
      JOINT LeftFoot
      {
        OFFSET 0 -36.1829 0
        CHANNELS 3 Zrotation Xrotation Yrotation
        JOINT LeftToeBase
        {
          OFFSET 0 -4.84184 13
          CHANNELS 3 Zrotation Xrotation Yrotation
          End Site
          {
            OFFSET 0 1 6
          }
        }
      }
    }
  }
  JOINT RightUpLeg
  {
    OFFSET -9 -7.17245 0
    CHANNELS 3 Zrotation Xrotation Yrotation
    JOINT RightLeg
    {
      OFFSET 0 -44.0551 0
      CHANNELS 3 Zrotation Xrotation Yrotation
      JOINT RightFoot
      {
        OFFSET 0 -36.1469 0
        CHANNELS 3 Zrotation Xrotation Yrotation
        JOINT RightToeBase
        {
          OFFSET 0 -4.92256 13
          CHANNELS 3 Zrotation Xrotation Yrotation
          End Site
          {
            OFFSET 0 1 6
          }
        }
      }
    }
  }
}
MOTION
Frames:	21
Frame Time:	0.0333333
228.852 101.467 -231.638 -1.21067 -2.3775 -37.887 0 0 0 4.4063 -1.6801 1.95519 -6.33406 6.60219 3.07786 7.25917 0.890468 3.61553 -2.52344 4.76815 6.3712 -29.8393 3.6143 -6.54142 -44.8732 17.9378 -17.8831 -4.62018 -19.5659 1.62294 -13.0433 0.473547 -4.1412 26.0334 5.80946 14.4093 51.9321 10.6394 6.29232 3.12026 -3.91864 9.08398 3.28312 0.0959836 3.26142 -0.344773 2.50627 5.8907 -1.34937 5.15691 -10.8638 8.17432 -7.33011 0.52449 1.2196 0.0364936 -5.11379 -0.551859 5.38333 -7.86983 1.19232 3.79026 -3.94672 -14.4136 -3.02275 -0.382551 3.47776 -12.766 -4.70779 
228.864 101.417 -231.673 -1.1073 -2.25814 -37.9545 0 0 0 4.49612 -1.70779 1.97752 -6.5111 6.38987 3.10945 7.30195 1.0885 3.6867 -2.43361 4.44038 6.44153 -29.7461 3.62041 -6.5839 -44.8271 18.2625 -17.6671 -4.75213 -20.2981 1.22273 -13.091 0.44854 -3.9071 25.9843 5.79282 14.3846 52.0625 10.5788 6.19811 3.25586 -4.69561 9.03724 2.25213 0.0387698 2.02045 -0.188994 2.14311 6.16973 -1.6267 5.6044 -10.8537 8.17617 -7.77687 0.556349 1.3585 0.499708 -5.71846 -0.564799 5.13876 -7.76511 1.30349 3.86157 -4.10488 -15.2882 -3.06427 -0.411433 3.53347 -13.0005 -4.95289 
228.871 101.497 -231.67 -1.12217 -2.23512 -37.949 0 0 0 4.37491 -1.45206 1.86603 -6.338 5.94722 2.95284 7.36101 2.2787 4.092 -1.89772 2.73948 6.79295 -29.7239 3.57094 -6.45281 -45.1099 18.2776 -17.3574 -4.75607 -20.3729 0.985488 -12.8003 0.418354 -3.72826 26.0958 5.88634 14.61 52.0426 10.6913 5.88714 3.31514 -5.04784 9.31968 2.35202 0.0246341 1.20122 -0.268348 2.15884 5.91419 -1.3413 5.5539 -11.2088 7.75514 -7.17317 0.488845 1.18561 -0.102031 -5.01084 -0.523401 5.13664 -7.76932 1.27397 3.78829 -4.30221 -14.7017 -2.94039 -0.379438 3.486 -12.8157 -4.43941 
228.818 101.574 -231.723 -0.88153 -2.51827 -38.0651 0 0 0 4.19684 -1.32118 1.97882 -6.89435 5.84028 3.11627 7.44133 2.37041 3.97845 -1.85523 2.83974 6.70383 -29.6457 3.592 -6.53279 -44.8982 18.6976 -17.3439 -4.88629 -20.6306 0.851787 -12.6306 0.400343 -3.61616 26.3794 5.85794 14.3742 51.9615 10.6315 5.91374 3.19701 -4.51076 9.26652 2.79667 0.0288376 1.17868 -0.500551 1.3983 5.85646 -1.00161 7.60608 -13.1459 6.3835 -6.42478 0.356834 0.179039 -1.11009 -0.447273 -0.886184 5.19647 -7.68568 1.21366 3.8385 -4.08805 -14.4124 -3.05629 -0.386256 3.40675 -12.4572 -4.71665 
228.808 101.558 -231.73 -0.970987 -2.54549 -38.076 0 0 0 4.25782 -1.23884 1.95854 -6.84043 5.82221 3.0819 7.24835 2.2285 3.95131 -1.67817 3.03045 6.56343 -29.8683 3.57642 -6.42862 -44.9729 18.3008 -17.3189 -4.79178 -20.1517 0.986058 -12.526 0.41286 -3.76225 26.1784 5.74399 14.1349 52.172 10.8014 6.11663 3.21558 -4.45566 9.24104 2.71079 0.0215463 0.912382 -0.447199 1.48997 5.86011 -0.929715 7.55636 -12.8752 5.83319 -6.87203 0.350194 0.278241 -0.431896 -1.06453 -0.816158 5.27846 -7.68572 1.08588 3.94849 -3.99374 -13.1287 -3.40889 -0.392148 3.28694 -11.9371 -4.68939 
228.8 101.56 -231.731 -1.06468 -2.5715 -38.0077 0 0 0 4.30417 -1.25325 1.94461 -6.77001 5.94014 3.06582 7.41531 2.08689 3.82514 -1.8732 3.09859 6.53065 -29.8139 3.58798 -6.47547 -45.1185 18.382 -17.3276 -4.76398 -19.5745 0.968545 -12.1666 0.417113 -3.91189 26.0613 5.67729 13.9933 52.4183 10.5879 6.04769 3.12772 -4.41242 9.48311 2.85154 0.0238788 0.954594 -0.330167 1.69854 5.95357 -1.09467 7.27196 -13.3566 6.44899 -6.16414 0.347913 0.254627 -1.88973 -0.58811 -0.747236 5.39985 -7.71826 1.05081 3.95243 -3.90415 -12.5947 -3.77354 -0.416745 3.10019 -11.132 -4.60193 
228.73 101.575 -231.727 -1.06904 -2.62388 -37.9238 0 0 0 4.13503 -1.33044 1.89722 -6.68994 5.97208 3.00158 7.74028 2.09639 3.75606 -2.19239 3.12276 6.64474 -29.7607 3.58977 -6.49501 -45.1895 18.1658 -17.2697 -4.72298 -19.7656 0.951454 -12.2196 0.3782 -3.53203 26.4282 5.73098 13.9673 52.1312 10.493 5.97969 3.05223 -3.98669 9.32183 3.10887 0.0352262 1.30099 -0.32013 1.76335 5.96865 -1.10667 7.27675 -13.4989 6.43461 -6.20431 0.348893 0.172947 -1.60939 -0.307707 -0.699073 5.54111 -7.69554 1.03203 3.77775 -4.10921 -12.9027 -3.54141 -0.400595 3.16753 -11.4544 -4.29289 
228.779 101.602 -231.753 -0.883638 -2.62481 -38.0644 0 0 0 3.91066 -1.39214 1.98292 -6.40968 5.95337 3.04763 7.33485 1.98477 3.94966 -1.86271 2.9694 6.61696 -30.0292 3.59792 -6.44433 -45.1545 18.1236 -17.248 -4.70784 -19.6992 0.821996 -12.2238 0.373473 -3.48664 26.2279 5.66572 13.8728 52.1297 10.6835 5.99174 3.09395 -4.1175 9.3309 3.1024 0.0346994 1.27155 -0.568276 1.74778 5.76606 -0.971836 7.00599 -12.9469 5.99635 -6.38173 0.334677 0.232574 -0.622522 -0.818489 -0.919614 5.29665 -7.8528 1.12382 3.90141 -3.86531 -13.1221 -3.39118 -0.390103 3.25914 -11.826 -4.57939 
228.754 101.582 -231.769 -0.88882 -2.69089 -38.1719 0 0 0 3.97516 -1.39973 1.97121 -6.59358 6.03609 3.08121 7.61774 1.75446 3.85327 -2.26309 3.53019 6.69666 -29.7524 3.5579 -6.40883 -45.408 17.9486 -17.253 -4.66852 -19.8422 0.905321 -12.1895 0.388996 -3.64243 26.2239 5.68846 13.9436 52.1897 10.7599 6.00017 3.15317 -4.34952 9.39112 2.64285 0.0187418 0.834585 -0.621622 1.83003 5.71183 -0.966617 6.96075 -12.9104 6.25901 -6.12822 0.335335 0.243019 -1.48507 -0.649767 -0.951163 5.32995 -7.84692 1.09274 3.92827 -3.66131 -13.2808 -3.29087 -0.38319 3.30833 -12.0549 -4.36451 
228.682 101.561 -231.822 -1.08706 -2.67665 -38.1397 0 0 0 4.10078 -1.35945 2.00384 -6.54145 6.11108 3.08312 7.32936 1.80092 3.87601 -2.00605 3.4756 6.56832 -29.9818 3.57283 -6.38807 -45.1257 18.2111 -17.4066 -4.72606 -20.1263 1.09118 -12.0632 0.407391 -3.85407 25.7793 5.5622 13.7863 52.6811 10.6236 6.04844 3.08218 -4.05335 9.33291 2.19639 0.0202398 0.994756 -0.248477 1.83796 6.10764 -1.22684 7.25485 -13.4286 6.71751 -6.1206 0.359414 0.135107 -1.88739 -0.05581 -0.677178 5.48764 -7.65106 1.02193 3.88678 -3.8001 -13.1199 -3.35503 -0.385849 3.27162 -11.8847 -4.50186 
228.753 101.565 -231.861 -1.03384 -2.70746 -38.2732 0 0 0 4.04933 -1.28249 2.06559 -6.36385 6.12115 3.11554 6.95443 1.59423 4.02756 -1.85749 3.48804 6.54869 -30.3022 3.59302 -6.35775 -44.8281 18.3875 -17.4649 -4.78619 -20.6711 0.872659 -12.0507 0.396926 -3.75818 25.4493 5.43449 13.5622 52.8487 10.5345 6.26612 3.01277 -3.79423 9.24246 2.47679 0.0237762 0.854871 -0.403403 1.80517 5.94857 -1.07145 7.20246 -13.0397 6.15034 -6.27319 0.337473 0.196593 -1.362 -0.474011 -0.843034 5.31287 -7.77499 1.15098 4.07936 -3.64608 -13.3838 -3.33304 -0.390573 3.33421 -12.1458 -4.60709 
228.673 101.586 -231.876 -1.07006 -2.7558 -38.0496 0 0 0 3.7942 -1.37792 1.96738 -6.02617 6.23251 2.94905 6.91941 1.66525 3.99626 -1.78865 3.37859 6.49448 -30.44 3.58595 -6.30186 -44.6821 18.6467 -17.3807 -4.86982 -20.8761 0.591561 -11.848 0.371912 -3.58335 25.4077 5.45734 13.654 52.8348 10.5979 6.1539 3.06765 -3.93403 9.19602 2.42544 0.0282025 1.25797 -0.252884 1.92729 6.09265 -1.2497 7.08399 -13.46 6.28302 -6.08966 0.3342 0.256866 -1.6563 -0.662994 -0.779682 5.50199 -7.83917 1.13543 3.9941 -3.89619 -12.7328 -3.64873 -0.407121 3.15973 -11.4249 -4.25215 
228.728 101.578 -231.884 -0.967166 -2.75436 -38.2878 0 0 0 4.02298 -1.39854 2.06474 -6.38187 6.21816 3.12942 7.01263 1.66388 4.03566 -1.81658 3.24419 6.56813 -30.2154 3.59535 -6.3872 -44.8957 18.2645 -17.4203 -4.74025 -20.233 0.862259 -12.1271 0.399728 -3.76103 25.39 5.48194 13.7394 52.8783 10.72 6.15199 3.0851 -3.77631 9.15178 2.34665 0.0315318 1.54662 -0.467846 1.87184 5.91685 -1.15799 7.00413 -13.0663 6.69422 -5.77841 0.338325 0.264462 -2.06849 -0.586573 -0.951768 5.31746 -7.92243 1.24962 4.07745 -3.47967 -13.4494 -3.3596 -0.396394 3.31963 -12.0736 -4.78265 
228.663 101.575 -231.907 -0.889403 -2.79142 -37.9135 0 0 0 3.59198 -1.63642 1.93172 -5.95148 6.44241 2.91127 6.86726 1.76242 4.10863 -1.76251 2.99172 6.58693 -30.3276 3.59443 -6.3547 -44.8737 18.1869 -17.365 -4.73099 -19.9541 0.840159 -12.1637 0.422765 -3.96506 25.5262 5.51747 13.7791 52.712 10.7015 6.15873 3.05674 -3.62833 9.05114 2.37619 0.0332318 1.60313 -0.4622 1.88309 5.91528 -1.19457 6.93071 -13.3151 6.67054 -6.06936 0.354023 0.241652 -1.31184 -0.685831 -0.94015 5.43542 -7.96452 1.24227 3.8918 -3.82625 -13.5497 -3.35281 -0.398392 3.31294 -12.0469 -4.74628 
228.612 101.577 -231.972 -0.871776 -2.76784 -38.286 0 0 0 3.56899 -1.60893 2.08447 -5.98305 6.39734 3.08407 7.0837 1.72462 4.05008 -2.01619 2.98156 6.65666 -30.2534 3.55604 -6.26953 -45.1622 17.8925 -17.3816 -4.66234 -19.3764 0.904573 -11.7906 0.397267 -3.84528 25.7874 5.57013 13.8072 52.5004 10.6494 6.15033 3.18946 -4.44169 9.24475 2.7288 0.0355869 1.49957 -0.393317 1.93531 6.0287 -1.28364 6.81417 -13.1129 6.63238 -5.99516 0.347377 0.2006 -1.60299 -0.42688 -0.894688 5.2998 -7.85887 1.15098 3.98677 -3.61631 -13.5458 -3.25709 -0.386924 3.35344 -12.2434 -4.44491 
228.613 101.561 -232.033 -0.951732 -2.76744 -38.1443 0 0 0 3.76113 -1.35383 2.04641 -6.15434 6.14816 3.06127 6.88907 1.91959 4.08808 -1.87619 2.80668 6.61161 -30.2501 3.58024 -6.33665 -45.3538 17.282 -17.3378 -4.48875 -18.5557 1.22846 -12.0588 0.424848 -4.02081 26.0225 5.61448 13.8212 52.4128 10.3216 5.92295 3.16196 -4.71584 9.36878 3.16432 0.0413982 1.4997 -0.270647 1.81561 6.09137 -1.22465 7.09387 -13.42 6.04806 -6.12921 0.323997 0.181119 -1.5918 -0.343536 -0.737403 5.34567 -7.7081 1.05982 3.96404 -3.83758 -13.1604 -3.32968 -0.384316 3.33815 -12.1405 -4.93347 
228.583 101.603 -232.054 -0.830744 -2.70522 -38.1885 0 0 0 3.84594 -1.24013 1.92758 -6.38983 5.74429 3.00058 6.96434 2.18132 4.2503 -1.81924 2.69331 6.79768 -30.229 3.55624 -6.27652 -45.2218 17.472 -16.8837 -4.56824 -18.7633 0.771348 -11.9193 0.405853 -3.88543 26.4251 5.80609 14.1952 52.2396 10.0534 5.48867 3.09772 -4.71207 9.54269 3.33639 0.0442606 1.51771 -0.336285 1.83869 5.98449 -1.26573 6.7276 -13.3087 6.33652 -5.81012 0.321435 0.21875 -1.692 -0.487129 -0.786398 5.17547 -7.73713 1.0387 4.0496 -3.74667 -13.1032 -3.59371 -0.412485 3.16131 -11.4251 -4.34641 
228.548 101.623 -232.085 -0.959145 -2.74625 -38.0906 0 0 0 3.86001 -1.18726 1.8689 -6.38946 5.85472 2.93746 7.16203 2.08246 4.20658 -1.87319 2.74879 6.8232 -29.9187 3.53371 -6.29711 -45.7403 16.9316 -16.9495 -4.42737 -18.3267 1.00053 -11.8756 0.402394 -3.87926 26.4978 5.84343 14.2692 52.275 10.0348 5.54487 3.09525 -4.72679 9.44002 3.20431 0.0423864 1.51322 -0.25705 1.90381 5.98215 -1.10217 6.85474 -13.1296 5.88747 -6.24834 0.318873 0.285597 -0.495401 -1.07771 -0.657779 5.29624 -7.6791 0.993565 4.1308 -3.91358 -12.6672 -3.87745 -0.430727 3.04895 -10.9182 -4.51234 
228.502 101.596 -232.112 -1.04461 -2.89259 -38.2484 0 0 0 3.79149 -1.1328 2.03385 -6.20796 6.02896 3.05988 6.99308 2.12685 4.08344 -1.95562 2.87735 6.67365 -30.2826 3.56911 -6.29747 -45.2513 17.4985 -17.2406 -4.58422 -18.8957 1.16475 -11.6989 0.40255 -3.97665 26.1148 5.74409 14.169 52.5164 10.1765 5.58566 3.18456 -5.05647 9.58206 2.98234 0.0488842 1.89244 -0.266105 2.0075 6.00093 -0.976369 7.09699 -12.9259 5.45817 -6.69611 0.319793 0.295228 -0.0907372 -1.21525 -0.70875 5.42111 -7.73016 1.12873 4.24189 -3.8236 -13.2227 -3.98667 -0.461928 3.10097 -11.1449 -4.51067 
228.448 101.586 -232.138 -1.08864 -2.90476 -38.4183 0 0 0 3.93026 -1.05983 2.09075 -6.25457 5.94397 3.12913 6.91123 2.46546 4.11717 -1.92946 2.56014 6.6965 -30.4342 3.58237 -6.29348 -44.8655 17.9654 -17.2168 -4.72842 -19.5966 1.07183 -11.5849 0.406073 -3.99849 25.6969 5.63312 14.0442 52.9485 10.5292 5.74373 3.53686 -6.26008 9.5852 2.61872 0.0621017 2.69348 -0.121712 2.13121 6.18525 -1.18791 6.96625 -13.0967 5.63127 -6.49268 0.319685 0.23721 -0.632096 -0.838385 -0.663352 5.34542 -7.68473 1.09029 4.48962 -3.71524 -12.9618 -4.23423 -0.480992 3.02237 -10.7937 -4.58248 
228.381 101.597 -232.174 -1.09832 -2.96625 -38.1701 0 0 0 3.81537 -1.20614 1.934 -6.14286 6.24215 2.95468 6.69231 2.35809 4.19086 -1.78163 2.41284 6.65585 -30.5054 3.53502 -6.14619 -44.5681 18.2087 -17.4779 -4.76412 -19.8053 1.21502 -11.6478 0.417183 -4.08808 25.1997 5.40642 13.6024 53.347 10.5982 6.43393 3.34158 -5.06967 9.02375 2.58032 0.0472555 2.1634 -0.0254394 2.2095 6.27376 -1.25322 6.93239 -13.472 5.4272 -6.51586 0.309178 0.241866 -0.403339 -0.914575 -0.632714 5.39974 -7.69725 1.19513 4.5577 -3.89062 -13.7653 -4.08336 -0.493276 3.13054 -11.2711 -4.54173 
